<?xml version="1.0" encoding="UTF-8" standalone="no"?>
<!DOCTYPE svg PUBLIC "-//W3C//DTD SVG 1.1//EN"
 "http://www.w3.org/Graphics/SVG/1.1/DTD/svg11.dtd">
<!-- Generated by graphviz version 2.26.3 (20100126.1600)
 -->
<!-- Title: controllers_diagram Pages: 1 -->
<svg width="1212pt" height="987pt"
 viewBox="0.00 0.00 1212.00 987.00" xmlns="http://www.w3.org/2000/svg" xmlns:xlink="http://www.w3.org/1999/xlink">
<g id="graph1" class="graph" transform="scale(1 1) rotate(0) translate(4 983)">
<title>controllers_diagram</title>
<polygon fill="white" stroke="white" points="-4,5 -4,-983 1209,-983 1209,5 -4,5"/>
<!-- _diagram_info -->
<g id="node1" class="node"><title>_diagram_info</title>
<text text-anchor="start" x="961" y="-962.3" font-family="Times Roman,serif" font-size="13.00">Controllers diagram</text>
<text text-anchor="start" x="961" y="-945.3" font-family="Times Roman,serif" font-size="13.00">Date: Feb 17 2014 &#45; 12:15</text>
<text text-anchor="start" x="961" y="-928.3" font-family="Times Roman,serif" font-size="13.00">Migration version: 20140210140154</text>
<text text-anchor="start" x="961" y="-911.3" font-family="Times Roman,serif" font-size="13.00">Generated by RailRoady 1.1.1</text>
<text text-anchor="start" x="961" y="-894.3" font-family="Times Roman,serif" font-size="13.00">http://railroady.prestonlee.com</text>
</g>
<!-- PhysiciansController -->
<g id="node2" class="node"><title>PhysiciansController</title>
<polyline fill="none" stroke="black" points="13,-328.587 146,-328.587 "/>
<path fill="none" stroke="black" d="M146,-328.587C152,-328.587 158,-334.587 158,-340.587"/>
<polyline fill="none" stroke="black" points="158,-340.587 158,-418.587 "/>
<path fill="none" stroke="black" d="M158,-418.587C158,-424.587 152,-430.587 146,-430.587"/>
<polyline fill="none" stroke="black" points="146,-430.587 13,-430.587 "/>
<path fill="none" stroke="black" d="M13,-430.587C7,-430.587 1,-424.587 1,-418.587"/>
<polyline fill="none" stroke="black" points="1,-418.587 1,-340.587 "/>
<path fill="none" stroke="black" d="M1,-340.587C1,-334.587 7,-328.587 13,-328.587"/>
<text text-anchor="middle" x="79.5" y="-413.987" font-family="Times Roman,serif" font-size="14.00">PhysiciansController</text>
<polyline fill="none" stroke="black" points="1,-404.587 158,-404.587 "/>
<text text-anchor="start" x="9" y="-387.987" font-family="Times Roman,serif" font-size="14.00">show</text>
<polyline fill="none" stroke="black" points="1,-378.587 158,-378.587 "/>
<polyline fill="none" stroke="black" points="1,-354.587 158,-354.587 "/>
<text text-anchor="start" x="9" y="-337.987" font-family="Times Roman,serif" font-size="14.00">_layout</text>
</g>
<!-- AppointmentsController -->
<g id="node3" class="node"><title>AppointmentsController</title>
<polyline fill="none" stroke="black" points="768.262,-631.792 926.262,-631.792 "/>
<path fill="none" stroke="black" d="M926.262,-631.792C932.262,-631.792 938.262,-637.792 938.262,-643.792"/>
<polyline fill="none" stroke="black" points="938.262,-643.792 938.262,-739.792 "/>
<path fill="none" stroke="black" d="M938.262,-739.792C938.262,-745.792 932.262,-751.792 926.262,-751.792"/>
<polyline fill="none" stroke="black" points="926.262,-751.792 768.262,-751.792 "/>
<path fill="none" stroke="black" d="M768.262,-751.792C762.262,-751.792 756.262,-745.792 756.262,-739.792"/>
<polyline fill="none" stroke="black" points="756.262,-739.792 756.262,-643.792 "/>
<path fill="none" stroke="black" d="M756.262,-643.792C756.262,-637.792 762.262,-631.792 768.262,-631.792"/>
<text text-anchor="middle" x="847.262" y="-735.192" font-family="Times Roman,serif" font-size="14.00">AppointmentsController</text>
<polyline fill="none" stroke="black" points="756.262,-725.792 938.262,-725.792 "/>
<text text-anchor="start" x="764.262" y="-709.192" font-family="Times Roman,serif" font-size="14.00">index</text>
<text text-anchor="start" x="764.262" y="-691.192" font-family="Times Roman,serif" font-size="14.00">show</text>
<polyline fill="none" stroke="black" points="756.262,-681.792 938.262,-681.792 "/>
<polyline fill="none" stroke="black" points="756.262,-657.792 938.262,-657.792 "/>
<text text-anchor="start" x="764.262" y="-641.192" font-family="Times Roman,serif" font-size="14.00">_layout</text>
</g>
<!-- PartsController -->
<g id="node4" class="node"><title>PartsController</title>
<polyline fill="none" stroke="black" points="431.696,-1.5 528.696,-1.5 "/>
<path fill="none" stroke="black" d="M528.696,-1.5C534.696,-1.5 540.696,-7.5 540.696,-13.5"/>
<polyline fill="none" stroke="black" points="540.696,-13.5 540.696,-89.5 "/>
<path fill="none" stroke="black" d="M540.696,-89.5C540.696,-95.5 534.696,-101.5 528.696,-101.5"/>
<polyline fill="none" stroke="black" points="528.696,-101.5 431.696,-101.5 "/>
<path fill="none" stroke="black" d="M431.696,-101.5C425.696,-101.5 419.696,-95.5 419.696,-89.5"/>
<polyline fill="none" stroke="black" points="419.696,-89.5 419.696,-13.5 "/>
<path fill="none" stroke="black" d="M419.696,-13.5C419.696,-7.5 425.696,-1.5 431.696,-1.5"/>
<text text-anchor="middle" x="480.196" y="-84.9" font-family="Times Roman,serif" font-size="14.00">PartsController</text>
<polyline fill="none" stroke="black" points="419.696,-75.5 540.696,-75.5 "/>
<polyline fill="none" stroke="black" points="419.696,-51.5 540.696,-51.5 "/>
<polyline fill="none" stroke="black" points="419.696,-27.5 540.696,-27.5 "/>
<text text-anchor="start" x="427.696" y="-10.9" font-family="Times Roman,serif" font-size="14.00">_layout</text>
</g>
<!-- CustomersController -->
<g id="node5" class="node"><title>CustomersController</title>
<polyline fill="none" stroke="black" points="353.801,-671.439 488.801,-671.439 "/>
<path fill="none" stroke="black" d="M488.801,-671.439C494.801,-671.439 500.801,-677.439 500.801,-683.439"/>
<polyline fill="none" stroke="black" points="500.801,-683.439 500.801,-761.439 "/>
<path fill="none" stroke="black" d="M500.801,-761.439C500.801,-767.439 494.801,-773.439 488.801,-773.439"/>
<polyline fill="none" stroke="black" points="488.801,-773.439 353.801,-773.439 "/>
<path fill="none" stroke="black" d="M353.801,-773.439C347.801,-773.439 341.801,-767.439 341.801,-761.439"/>
<polyline fill="none" stroke="black" points="341.801,-761.439 341.801,-683.439 "/>
<path fill="none" stroke="black" d="M341.801,-683.439C341.801,-677.439 347.801,-671.439 353.801,-671.439"/>
<text text-anchor="middle" x="421.301" y="-756.839" font-family="Times Roman,serif" font-size="14.00">CustomersController</text>
<polyline fill="none" stroke="black" points="341.801,-747.439 500.801,-747.439 "/>
<text text-anchor="start" x="349.801" y="-730.839" font-family="Times Roman,serif" font-size="14.00">show</text>
<polyline fill="none" stroke="black" points="341.801,-721.439 500.801,-721.439 "/>
<polyline fill="none" stroke="black" points="341.801,-697.439 500.801,-697.439 "/>
<text text-anchor="start" x="349.801" y="-680.839" font-family="Times Roman,serif" font-size="14.00">_layout</text>
</g>
<!-- StaticPageController -->
<g id="node6" class="node"><title>StaticPageController</title>
<polyline fill="none" stroke="black" points="555.102,-560.784 689.102,-560.784 "/>
<path fill="none" stroke="black" d="M689.102,-560.784C695.102,-560.784 701.102,-566.784 701.102,-572.784"/>
<polyline fill="none" stroke="black" points="701.102,-572.784 701.102,-668.784 "/>
<path fill="none" stroke="black" d="M701.102,-668.784C701.102,-674.784 695.102,-680.784 689.102,-680.784"/>
<polyline fill="none" stroke="black" points="689.102,-680.784 555.102,-680.784 "/>
<path fill="none" stroke="black" d="M555.102,-680.784C549.102,-680.784 543.102,-674.784 543.102,-668.784"/>
<polyline fill="none" stroke="black" points="543.102,-668.784 543.102,-572.784 "/>
<path fill="none" stroke="black" d="M543.102,-572.784C543.102,-566.784 549.102,-560.784 555.102,-560.784"/>
<text text-anchor="middle" x="622.102" y="-664.184" font-family="Times Roman,serif" font-size="14.00">StaticPageController</text>
<polyline fill="none" stroke="black" points="543.102,-654.784 701.102,-654.784 "/>
<text text-anchor="start" x="551.102" y="-638.184" font-family="Times Roman,serif" font-size="14.00">has_many</text>
<text text-anchor="start" x="551.102" y="-620.184" font-family="Times Roman,serif" font-size="14.00">home</text>
<polyline fill="none" stroke="black" points="543.102,-610.784 701.102,-610.784 "/>
<polyline fill="none" stroke="black" points="543.102,-586.784 701.102,-586.784 "/>
<text text-anchor="start" x="551.102" y="-570.184" font-family="Times Roman,serif" font-size="14.00">_layout</text>
</g>
<!-- AccountHistoriesController -->
<g id="node7" class="node"><title>AccountHistoriesController</title>
<polyline fill="none" stroke="black" points="224.192,-448.541 401.192,-448.541 "/>
<path fill="none" stroke="black" d="M401.192,-448.541C407.192,-448.541 413.192,-454.541 413.192,-460.541"/>
<polyline fill="none" stroke="black" points="413.192,-460.541 413.192,-536.541 "/>
<path fill="none" stroke="black" d="M413.192,-536.541C413.192,-542.541 407.192,-548.541 401.192,-548.541"/>
<polyline fill="none" stroke="black" points="401.192,-548.541 224.192,-548.541 "/>
<path fill="none" stroke="black" d="M224.192,-548.541C218.192,-548.541 212.192,-542.541 212.192,-536.541"/>
<polyline fill="none" stroke="black" points="212.192,-536.541 212.192,-460.541 "/>
<path fill="none" stroke="black" d="M212.192,-460.541C212.192,-454.541 218.192,-448.541 224.192,-448.541"/>
<text text-anchor="middle" x="312.692" y="-531.941" font-family="Times Roman,serif" font-size="14.00">AccountHistoriesController</text>
<polyline fill="none" stroke="black" points="212.192,-522.541 413.192,-522.541 "/>
<polyline fill="none" stroke="black" points="212.192,-498.541 413.192,-498.541 "/>
<polyline fill="none" stroke="black" points="212.192,-474.541 413.192,-474.541 "/>
<text text-anchor="start" x="220.192" y="-457.941" font-family="Times Roman,serif" font-size="14.00">_layout</text>
</g>
<!-- SuppliersController -->
<g id="node8" class="node"><title>SuppliersController</title>
<polyline fill="none" stroke="black" points="55.4999,-31.332 180.5,-31.332 "/>
<path fill="none" stroke="black" d="M180.5,-31.332C186.5,-31.332 192.5,-37.332 192.5,-43.332"/>
<polyline fill="none" stroke="black" points="192.5,-43.332 192.5,-121.332 "/>
<path fill="none" stroke="black" d="M192.5,-121.332C192.5,-127.332 186.5,-133.332 180.5,-133.332"/>
<polyline fill="none" stroke="black" points="180.5,-133.332 55.4999,-133.332 "/>
<path fill="none" stroke="black" d="M55.4999,-133.332C49.4999,-133.332 43.4999,-127.332 43.4999,-121.332"/>
<polyline fill="none" stroke="black" points="43.4999,-121.332 43.4999,-43.332 "/>
<path fill="none" stroke="black" d="M43.4999,-43.332C43.4999,-37.332 49.4999,-31.332 55.4999,-31.332"/>
<text text-anchor="middle" x="118" y="-116.732" font-family="Times Roman,serif" font-size="14.00">SuppliersController</text>
<polyline fill="none" stroke="black" points="43.4999,-107.332 192.5,-107.332 "/>
<text text-anchor="start" x="51.4999" y="-90.732" font-family="Times Roman,serif" font-size="14.00">show</text>
<polyline fill="none" stroke="black" points="43.4999,-81.332 192.5,-81.332 "/>
<polyline fill="none" stroke="black" points="43.4999,-57.332 192.5,-57.332 "/>
<text text-anchor="start" x="51.4999" y="-40.732" font-family="Times Roman,serif" font-size="14.00">_layout</text>
</g>
<!-- OrdersController -->
<g id="node9" class="node"><title>OrdersController</title>
<polyline fill="none" stroke="black" points="780.593,-37.0076 888.593,-37.0076 "/>
<path fill="none" stroke="black" d="M888.593,-37.0076C894.593,-37.0076 900.593,-43.0076 900.593,-49.0076"/>
<polyline fill="none" stroke="black" points="900.593,-49.0076 900.593,-127.008 "/>
<path fill="none" stroke="black" d="M900.593,-127.008C900.593,-133.008 894.593,-139.008 888.593,-139.008"/>
<polyline fill="none" stroke="black" points="888.593,-139.008 780.593,-139.008 "/>
<path fill="none" stroke="black" d="M780.593,-139.008C774.593,-139.008 768.593,-133.008 768.593,-127.008"/>
<polyline fill="none" stroke="black" points="768.593,-127.008 768.593,-49.0076 "/>
<path fill="none" stroke="black" d="M768.593,-49.0076C768.593,-43.0076 774.593,-37.0076 780.593,-37.0076"/>
<text text-anchor="middle" x="834.593" y="-122.408" font-family="Times Roman,serif" font-size="14.00">OrdersController</text>
<polyline fill="none" stroke="black" points="768.593,-113.008 900.593,-113.008 "/>
<text text-anchor="start" x="776.593" y="-96.4076" font-family="Times Roman,serif" font-size="14.00">show</text>
<polyline fill="none" stroke="black" points="768.593,-87.0076 900.593,-87.0076 "/>
<polyline fill="none" stroke="black" points="768.593,-63.0076 900.593,-63.0076 "/>
<text text-anchor="start" x="776.593" y="-46.4076" font-family="Times Roman,serif" font-size="14.00">_layout</text>
</g>
<!-- AssembliesAndPartsController -->
<g id="node10" class="node"><title>AssembliesAndPartsController</title>
<polyline fill="none" stroke="black" points="235.466,-199.95 434.466,-199.95 "/>
<path fill="none" stroke="black" d="M434.466,-199.95C440.466,-199.95 446.466,-205.95 446.466,-211.95"/>
<polyline fill="none" stroke="black" points="446.466,-211.95 446.466,-289.95 "/>
<path fill="none" stroke="black" d="M446.466,-289.95C446.466,-295.95 440.466,-301.95 434.466,-301.95"/>
<polyline fill="none" stroke="black" points="434.466,-301.95 235.466,-301.95 "/>
<path fill="none" stroke="black" d="M235.466,-301.95C229.466,-301.95 223.466,-295.95 223.466,-289.95"/>
<polyline fill="none" stroke="black" points="223.466,-289.95 223.466,-211.95 "/>
<path fill="none" stroke="black" d="M223.466,-211.95C223.466,-205.95 229.466,-199.95 235.466,-199.95"/>
<text text-anchor="middle" x="334.966" y="-285.35" font-family="Times Roman,serif" font-size="14.00">AssembliesAndPartsController</text>
<polyline fill="none" stroke="black" points="223.466,-275.95 446.466,-275.95 "/>
<text text-anchor="start" x="231.466" y="-259.35" font-family="Times Roman,serif" font-size="14.00">index</text>
<polyline fill="none" stroke="black" points="223.466,-249.95 446.466,-249.95 "/>
<polyline fill="none" stroke="black" points="223.466,-225.95 446.466,-225.95 "/>
<text text-anchor="start" x="231.466" y="-209.35" font-family="Times Roman,serif" font-size="14.00">_layout</text>
</g>
<!-- AssembliesController -->
<g id="node11" class="node"><title>AssembliesController</title>
<polyline fill="none" stroke="black" points="555.924,-203.942 692.924,-203.942 "/>
<path fill="none" stroke="black" d="M692.924,-203.942C698.924,-203.942 704.924,-209.942 704.924,-215.942"/>
<polyline fill="none" stroke="black" points="704.924,-215.942 704.924,-291.942 "/>
<path fill="none" stroke="black" d="M704.924,-291.942C704.924,-297.942 698.924,-303.942 692.924,-303.942"/>
<polyline fill="none" stroke="black" points="692.924,-303.942 555.924,-303.942 "/>
<path fill="none" stroke="black" d="M555.924,-303.942C549.924,-303.942 543.924,-297.942 543.924,-291.942"/>
<polyline fill="none" stroke="black" points="543.924,-291.942 543.924,-215.942 "/>
<path fill="none" stroke="black" d="M543.924,-215.942C543.924,-209.942 549.924,-203.942 555.924,-203.942"/>
<text text-anchor="middle" x="624.424" y="-287.342" font-family="Times Roman,serif" font-size="14.00">AssembliesController</text>
<polyline fill="none" stroke="black" points="543.924,-277.942 704.924,-277.942 "/>
<polyline fill="none" stroke="black" points="543.924,-253.942 704.924,-253.942 "/>
<polyline fill="none" stroke="black" points="543.924,-229.942 704.924,-229.942 "/>
<text text-anchor="start" x="551.924" y="-213.342" font-family="Times Roman,serif" font-size="14.00">_layout</text>
</g>
<!-- ApplicationController -->
<g id="node12" class="node"><title>ApplicationController</title>
<polyline fill="none" stroke="black" points="442.6,-366.833 579.6,-366.833 "/>
<path fill="none" stroke="black" d="M579.6,-366.833C585.6,-366.833 591.6,-372.833 591.6,-378.833"/>
<polyline fill="none" stroke="black" points="591.6,-378.833 591.6,-454.833 "/>
<path fill="none" stroke="black" d="M591.6,-454.833C591.6,-460.833 585.6,-466.833 579.6,-466.833"/>
<polyline fill="none" stroke="black" points="579.6,-466.833 442.6,-466.833 "/>
<path fill="none" stroke="black" d="M442.6,-466.833C436.6,-466.833 430.6,-460.833 430.6,-454.833"/>
<polyline fill="none" stroke="black" points="430.6,-454.833 430.6,-378.833 "/>
<path fill="none" stroke="black" d="M430.6,-378.833C430.6,-372.833 436.6,-366.833 442.6,-366.833"/>
<text text-anchor="middle" x="511.1" y="-450.233" font-family="Times Roman,serif" font-size="14.00">ApplicationController</text>
<polyline fill="none" stroke="black" points="430.6,-440.833 591.6,-440.833 "/>
<polyline fill="none" stroke="black" points="430.6,-416.833 591.6,-416.833 "/>
<polyline fill="none" stroke="black" points="430.6,-392.833 591.6,-392.833 "/>
<text text-anchor="start" x="438.6" y="-376.233" font-family="Times Roman,serif" font-size="14.00">_layout</text>
</g>
<!-- ApplicationController&#45;&gt;PhysiciansController -->
<g id="edge2" class="edge"><title>ApplicationController&#45;&gt;PhysiciansController</title>
<path fill="none" stroke="black" d="M430.426,-409.871C352.594,-403.155 235.523,-393.052 158.322,-386.389"/>
</g>
<!-- ApplicationController&#45;&gt;AppointmentsController -->
<g id="edge4" class="edge"><title>ApplicationController&#45;&gt;AppointmentsController</title>
<path fill="none" stroke="black" d="M584.273,-466.903C621.101,-492.907 665.949,-525.819 704.302,-557.584 732.224,-580.71 761.656,-607.822 786.509,-631.6"/>
</g>
<!-- ApplicationController&#45;&gt;PartsController -->
<g id="edge6" class="edge"><title>ApplicationController&#45;&gt;PartsController</title>
<path fill="none" stroke="black" d="M506.868,-366.801C500.967,-297.036 490.328,-171.268 484.427,-101.513"/>
</g>
<!-- ApplicationController&#45;&gt;CustomersController -->
<g id="edge8" class="edge"><title>ApplicationController&#45;&gt;CustomersController</title>
<path fill="none" stroke="black" d="M496.372,-466.956C479.803,-523.344 453.031,-614.455 436.336,-671.269"/>
</g>
<!-- ApplicationController&#45;&gt;StaticPageController -->
<g id="edge10" class="edge"><title>ApplicationController&#45;&gt;StaticPageController</title>
<path fill="none" stroke="black" d="M538.397,-466.986C553.803,-495.293 573.158,-530.856 589.375,-560.652"/>
</g>
<!-- ApplicationController&#45;&gt;AccountHistoriesController -->
<g id="edge12" class="edge"><title>ApplicationController&#45;&gt;AccountHistoriesController</title>
<path fill="none" stroke="black" d="M430.4,-450.067C424.821,-452.365 419.161,-454.695 413.495,-457.029"/>
</g>
<!-- ApplicationController&#45;&gt;SuppliersController -->
<g id="edge14" class="edge"><title>ApplicationController&#45;&gt;SuppliersController</title>
<path fill="none" stroke="black" d="M430.333,-403.145C366.428,-388.595 278.543,-359.831 220.266,-305.15 170.759,-258.697 143.244,-183.633 129.535,-133.643"/>
</g>
<!-- ApplicationController&#45;&gt;OrdersController -->
<g id="edge16" class="edge"><title>ApplicationController&#45;&gt;OrdersController</title>
<path fill="none" stroke="black" d="M591.951,-384.064C630.399,-365.611 675.068,-339.692 708.124,-307.142 757.263,-258.756 793.697,-187.299 814.528,-139.267"/>
</g>
<!-- ApplicationController&#45;&gt;AssembliesAndPartsController -->
<g id="edge18" class="edge"><title>ApplicationController&#45;&gt;AssembliesAndPartsController</title>
<path fill="none" stroke="black" d="M457.776,-366.613C436.109,-346.206 411.099,-322.652 389.327,-302.146"/>
</g>
<!-- ApplicationController&#45;&gt;AssembliesController -->
<g id="edge20" class="edge"><title>ApplicationController&#45;&gt;AssembliesController</title>
<path fill="none" stroke="black" d="M546.026,-366.631C559.878,-346.72 575.773,-323.873 589.614,-303.978"/>
</g>
<!-- PatientsController -->
<g id="node13" class="node"><title>PatientsController</title>
<polyline fill="none" stroke="black" points="46.2525,-635.945 164.253,-635.945 "/>
<path fill="none" stroke="black" d="M164.253,-635.945C170.253,-635.945 176.253,-641.945 176.253,-647.945"/>
<polyline fill="none" stroke="black" points="176.253,-647.945 176.253,-723.945 "/>
<path fill="none" stroke="black" d="M176.253,-723.945C176.253,-729.945 170.253,-735.945 164.253,-735.945"/>
<polyline fill="none" stroke="black" points="164.253,-735.945 46.2525,-735.945 "/>
<path fill="none" stroke="black" d="M46.2525,-735.945C40.2525,-735.945 34.2525,-729.945 34.2525,-723.945"/>
<polyline fill="none" stroke="black" points="34.2525,-723.945 34.2525,-647.945 "/>
<path fill="none" stroke="black" d="M34.2525,-647.945C34.2525,-641.945 40.2525,-635.945 46.2525,-635.945"/>
<text text-anchor="middle" x="105.253" y="-719.345" font-family="Times Roman,serif" font-size="14.00">PatientsController</text>
<polyline fill="none" stroke="black" points="34.2525,-709.945 176.253,-709.945 "/>
<polyline fill="none" stroke="black" points="34.2525,-685.945 176.253,-685.945 "/>
<polyline fill="none" stroke="black" points="34.2525,-661.945 176.253,-661.945 "/>
<text text-anchor="start" x="42.2525" y="-645.345" font-family="Times Roman,serif" font-size="14.00">_layout</text>
</g>
<!-- ApplicationController&#45;&gt;PatientsController -->
<g id="edge22" class="edge"><title>ApplicationController&#45;&gt;PatientsController</title>
<path fill="none" stroke="black" d="M485.056,-466.95C468.483,-494.898 444.806,-528.625 416.392,-551.741 344.634,-610.122 243.635,-647.418 176.393,-667.504"/>
</g>
<!-- AccountsController -->
<g id="node14" class="node"><title>AccountsController</title>
<polyline fill="none" stroke="black" points="790,-343.622 914,-343.622 "/>
<path fill="none" stroke="black" d="M914,-343.622C920,-343.622 926,-349.622 926,-355.622"/>
<polyline fill="none" stroke="black" points="926,-355.622 926,-433.622 "/>
<path fill="none" stroke="black" d="M926,-433.622C926,-439.622 920,-445.622 914,-445.622"/>
<polyline fill="none" stroke="black" points="914,-445.622 790,-445.622 "/>
<path fill="none" stroke="black" d="M790,-445.622C784,-445.622 778,-439.622 778,-433.622"/>
<polyline fill="none" stroke="black" points="778,-433.622 778,-355.622 "/>
<path fill="none" stroke="black" d="M778,-355.622C778,-349.622 784,-343.622 790,-343.622"/>
<text text-anchor="middle" x="852" y="-429.022" font-family="Times Roman,serif" font-size="14.00">AccountsController</text>
<polyline fill="none" stroke="black" points="778,-419.622 926,-419.622 "/>
<text text-anchor="start" x="786" y="-403.022" font-family="Times Roman,serif" font-size="14.00">show</text>
<polyline fill="none" stroke="black" points="778,-393.622 926,-393.622 "/>
<polyline fill="none" stroke="black" points="778,-369.622 926,-369.622 "/>
<text text-anchor="start" x="786" y="-353.022" font-family="Times Roman,serif" font-size="14.00">_layout</text>
</g>
<!-- ApplicationController&#45;&gt;AccountsController -->
<g id="edge24" class="edge"><title>ApplicationController&#45;&gt;AccountsController</title>
<path fill="none" stroke="black" d="M591.889,-411.57C648.298,-407.894 723.024,-403.026 777.904,-399.45"/>
</g>
</g>
</svg>
