<?xml version="1.0" encoding="UTF-8" standalone="no"?>
<!DOCTYPE svg PUBLIC "-//W3C//DTD SVG 1.1//EN"
 "http://www.w3.org/Graphics/SVG/1.1/DTD/svg11.dtd">
<!-- Generated by graphviz version 2.26.3 (20100126.1600)
 -->
<!-- Title: controllers_diagram Pages: 1 -->
<svg width="965pt" height="526pt"
 viewBox="0.00 0.00 965.00 526.00" xmlns="http://www.w3.org/2000/svg" xmlns:xlink="http://www.w3.org/1999/xlink">
<g id="graph1" class="graph" transform="scale(1 1) rotate(0) translate(4 522)">
<title>controllers_diagram</title>
<polygon fill="white" stroke="white" points="-4,5 -4,-522 962,-522 962,5 -4,5"/>
<!-- _diagram_info -->
<g id="node1" class="node"><title>_diagram_info</title>
<text text-anchor="start" x="714" y="-501.3" font-family="Times Roman,serif" font-size="13.00">Controllers diagram</text>
<text text-anchor="start" x="714" y="-484.3" font-family="Times Roman,serif" font-size="13.00">Date: Feb 17 2014 &#45; 12:15</text>
<text text-anchor="start" x="714" y="-467.3" font-family="Times Roman,serif" font-size="13.00">Migration version: 20140210140154</text>
<text text-anchor="start" x="714" y="-450.3" font-family="Times Roman,serif" font-size="13.00">Generated by RailRoady 1.1.1</text>
<text text-anchor="start" x="714" y="-433.3" font-family="Times Roman,serif" font-size="13.00">http://railroady.prestonlee.com</text>
</g>
<!-- PhysiciansController -->
<g id="node2" class="node"><title>PhysiciansController</title>
<ellipse fill="none" stroke="black" cx="118.145" cy="-182.826" rx="111.016" ry="18.3848"/>
<text text-anchor="middle" x="118.145" y="-179.226" font-family="Times Roman,serif" font-size="14.00">PhysiciansController</text>
</g>
<!-- AppointmentsController -->
<g id="node3" class="node"><title>AppointmentsController</title>
<ellipse fill="none" stroke="black" cx="763.061" cy="-339.231" rx="128.193" ry="18.3848"/>
<text text-anchor="middle" x="763.061" y="-335.631" font-family="Times Roman,serif" font-size="14.00">AppointmentsController</text>
</g>
<!-- PartsController -->
<g id="node4" class="node"><title>PartsController</title>
<ellipse fill="none" stroke="black" cx="437.568" cy="-19.5" rx="85.0596" ry="18.3848"/>
<text text-anchor="middle" x="437.568" y="-15.9" font-family="Times Roman,serif" font-size="14.00">PartsController</text>
</g>
<!-- CustomersController -->
<g id="node5" class="node"><title>CustomersController</title>
<ellipse fill="none" stroke="black" cx="432.39" cy="-347.58" rx="111.93" ry="18.3848"/>
<text text-anchor="middle" x="432.39" y="-343.98" font-family="Times Roman,serif" font-size="14.00">CustomersController</text>
</g>
<!-- StaticPageController -->
<g id="node6" class="node"><title>StaticPageController</title>
<ellipse fill="none" stroke="black" cx="582.583" cy="-301.584" rx="111.222" ry="18.3848"/>
<text text-anchor="middle" x="582.583" y="-297.984" font-family="Times Roman,serif" font-size="14.00">StaticPageController</text>
</g>
<!-- AccountHistoriesController -->
<g id="node7" class="node"><title>AccountHistoriesController</title>
<ellipse fill="none" stroke="black" cx="284.59" cy="-299.898" rx="142.128" ry="18.3848"/>
<text text-anchor="middle" x="284.59" y="-296.298" font-family="Times Roman,serif" font-size="14.00">AccountHistoriesController</text>
</g>
<!-- SuppliersController -->
<g id="node8" class="node"><title>SuppliersController</title>
<ellipse fill="none" stroke="black" cx="106.5" cy="-28.0278" rx="104.86" ry="18.3848"/>
<text text-anchor="middle" x="106.5" y="-24.4278" font-family="Times Roman,serif" font-size="14.00">SuppliersController</text>
</g>
<!-- OrdersController -->
<g id="node9" class="node"><title>OrdersController</title>
<ellipse fill="none" stroke="black" cx="763.532" cy="-28.2749" rx="92.839" ry="18.3848"/>
<text text-anchor="middle" x="763.532" y="-24.6749" font-family="Times Roman,serif" font-size="14.00">OrdersController</text>
</g>
<!-- AssembliesAndPartsController -->
<g id="node10" class="node"><title>AssembliesAndPartsController</title>
<ellipse fill="none" stroke="black" cx="286.939" cy="-65.0106" rx="157.184" ry="18.3848"/>
<text text-anchor="middle" x="286.939" y="-61.4106" font-family="Times Roman,serif" font-size="14.00">AssembliesAndPartsController</text>
</g>
<!-- AssembliesController -->
<g id="node11" class="node"><title>AssembliesController</title>
<ellipse fill="none" stroke="black" cx="584.919" cy="-67.7922" rx="113.844" ry="18.3848"/>
<text text-anchor="middle" x="584.919" y="-64.1922" font-family="Times Roman,serif" font-size="14.00">AssembliesController</text>
</g>
<!-- ApplicationController -->
<g id="node12" class="node"><title>ApplicationController</title>
<ellipse fill="none" stroke="black" cx="434.163" cy="-183.544" rx="113.844" ry="18.3848"/>
<text text-anchor="middle" x="434.163" y="-179.944" font-family="Times Roman,serif" font-size="14.00">ApplicationController</text>
</g>
<!-- ApplicationController&#45;&gt;PhysiciansController -->
<g id="edge2" class="edge"><title>ApplicationController&#45;&gt;PhysiciansController</title>
<path fill="none" stroke="black" d="M320.073,-183.285C290.46,-183.217 258.611,-183.145 229.158,-183.078"/>
</g>
<!-- ApplicationController&#45;&gt;AppointmentsController -->
<g id="edge4" class="edge"><title>ApplicationController&#45;&gt;AppointmentsController</title>
<path fill="none" stroke="black" d="M475.327,-200.974C527.165,-223.199 618.704,-263.359 695.18,-301.724 707.215,-307.761 720.205,-314.805 731.568,-321.148"/>
</g>
<!-- ApplicationController&#45;&gt;PartsController -->
<g id="edge6" class="edge"><title>ApplicationController&#45;&gt;PartsController</title>
<path fill="none" stroke="black" d="M437.546,-164.706C441.373,-141.364 446.909,-100.351 445.539,-65.0329 445.19,-56.0514 443.621,-46.2135 441.966,-37.9876"/>
</g>
<!-- ApplicationController&#45;&gt;CustomersController -->
<g id="edge8" class="edge"><title>ApplicationController&#45;&gt;CustomersController</title>
<path fill="none" stroke="black" d="M433.959,-202.361C433.617,-234.003 432.931,-297.489 432.591,-328.983"/>
</g>
<!-- ApplicationController&#45;&gt;StaticPageController -->
<g id="edge10" class="edge"><title>ApplicationController&#45;&gt;StaticPageController</title>
<path fill="none" stroke="black" d="M457.028,-201.729C484.838,-223.846 531.516,-260.97 559.447,-283.184"/>
</g>
<!-- ApplicationController&#45;&gt;AccountHistoriesController -->
<g id="edge12" class="edge"><title>ApplicationController&#45;&gt;AccountHistoriesController</title>
<path fill="none" stroke="black" d="M410.792,-201.725C382.856,-223.456 336.37,-259.618 308.29,-281.461"/>
</g>
<!-- ApplicationController&#45;&gt;SuppliersController -->
<g id="edge14" class="edge"><title>ApplicationController&#45;&gt;SuppliersController</title>
<path fill="none" stroke="black" d="M360.347,-169.405C293.563,-153.502 195.649,-122.083 128.339,-64.9883 122.541,-60.0707 117.897,-53.2042 114.407,-46.7226"/>
</g>
<!-- ApplicationController&#45;&gt;OrdersController -->
<g id="edge16" class="edge"><title>ApplicationController&#45;&gt;OrdersController</title>
<path fill="none" stroke="black" d="M479.438,-166.353C533.233,-145.371 625.18,-107.742 700.514,-67.9699 712.864,-61.4501 726.009,-53.3665 737.081,-46.199"/>
</g>
<!-- ApplicationController&#45;&gt;AssembliesAndPartsController -->
<g id="edge18" class="edge"><title>ApplicationController&#45;&gt;AssembliesAndPartsController</title>
<path fill="none" stroke="black" d="M411.481,-165.283C383.896,-143.073 337.594,-105.795 309.888,-83.4878"/>
</g>
<!-- ApplicationController&#45;&gt;AssembliesController -->
<g id="edge20" class="edge"><title>ApplicationController&#45;&gt;AssembliesController</title>
<path fill="none" stroke="black" d="M458.05,-165.203C486.279,-143.529 532.963,-107.684 561.143,-86.0476"/>
</g>
<!-- PatientsController -->
<g id="node13" class="node"><title>PatientsController</title>
<ellipse fill="none" stroke="black" cx="105.997" cy="-338.649" rx="99.9096" ry="18.3848"/>
<text text-anchor="middle" x="105.997" y="-335.049" font-family="Times Roman,serif" font-size="14.00">PatientsController</text>
</g>
<!-- ApplicationController&#45;&gt;PatientsController -->
<g id="edge22" class="edge"><title>ApplicationController&#45;&gt;PatientsController</title>
<path fill="none" stroke="black" d="M372.336,-199.088C310.074,-216.718 213.161,-249.701 140.99,-299.852 133.094,-305.339 125.738,-312.933 119.828,-319.949"/>
</g>
<!-- AccountsController -->
<g id="node14" class="node"><title>AccountsController</title>
<ellipse fill="none" stroke="black" cx="752.242" cy="-184.278" rx="104.151" ry="18.3848"/>
<text text-anchor="middle" x="752.242" y="-180.678" font-family="Times Roman,serif" font-size="14.00">AccountsController</text>
</g>
<!-- ApplicationController&#45;&gt;AccountsController -->
<g id="edge24" class="edge"><title>ApplicationController&#45;&gt;AccountsController</title>
<path fill="none" stroke="black" d="M548.547,-183.808C581.052,-183.883 616.264,-183.964 648.124,-184.038"/>
</g>
</g>
</svg>
