<?xml version="1.0" encoding="UTF-8" standalone="no"?>
<!DOCTYPE svg PUBLIC "-//W3C//DTD SVG 1.1//EN"
 "http://www.w3.org/Graphics/SVG/1.1/DTD/svg11.dtd">
<!-- Generated by graphviz version 2.26.3 (20100126.1600)
 -->
<!-- Title: models_diagram Pages: 1 -->
<svg width="943pt" height="324pt"
 viewBox="0.00 0.00 943.07 324.00" xmlns="http://www.w3.org/2000/svg" xmlns:xlink="http://www.w3.org/1999/xlink">
<g id="graph1" class="graph" transform="scale(1 1) rotate(0) translate(4 320)">
<title>models_diagram</title>
<polygon fill="white" stroke="white" points="-4,5 -4,-320 940.071,-320 940.071,5 -4,5"/>
<!-- _diagram_info -->
<g id="node1" class="node"><title>_diagram_info</title>
<text text-anchor="start" x="86.0705" y="-299.8" font-family="Times Roman,serif" font-size="13.00">Models diagram</text>
<text text-anchor="start" x="86.0705" y="-282.8" font-family="Times Roman,serif" font-size="13.00">Date: Feb 17 2014 &#45; 12:15</text>
<text text-anchor="start" x="86.0705" y="-265.8" font-family="Times Roman,serif" font-size="13.00">Migration version: 20140210140154</text>
<text text-anchor="start" x="86.0705" y="-248.8" font-family="Times Roman,serif" font-size="13.00">Generated by RailRoady 1.1.1</text>
<text text-anchor="start" x="86.0705" y="-231.8" font-family="Times Roman,serif" font-size="13.00">http://railroady.prestonlee.com</text>
</g>
<!-- Assembly -->
<g id="node2" class="node"><title>Assembly</title>
<ellipse fill="none" stroke="black" cx="75.0705" cy="-167" rx="56.7776" ry="18.3848"/>
<text text-anchor="middle" x="75.0705" y="-163.4" font-family="Times Roman,serif" font-size="14.00">Assembly</text>
</g>
<!-- Part -->
<g id="node12" class="node"><title>Part</title>
<ellipse fill="none" stroke="black" cx="32.0705" cy="-93" rx="31.8198" ry="18.3848"/>
<text text-anchor="middle" x="32.0705" y="-89.4" font-family="Times Roman,serif" font-size="14.00">Part</text>
</g>
<!-- Assembly&#45;&gt;Part -->
<g id="edge2" class="edge"><title>Assembly&#45;&gt;Part</title>
<path fill="none" stroke="#6da012" d="M59.415,-140.058C55.4886,-133.301 51.2808,-126.06 47.3719,-119.333"/>
<polygon fill="#6da012" stroke="#6da012" points="59.4171,-140.062 60.5505,-150.969 61.9292,-144.385 64.4413,-148.708 64.4413,-148.708 64.4413,-148.708 61.9292,-144.385 68.3321,-146.447 59.4171,-140.062 59.4171,-140.062"/>
<polygon fill="#6da012" stroke="#6da012" points="47.3056,-119.218 46.1722,-108.311 44.7935,-114.895 42.2813,-110.572 42.2813,-110.572 42.2813,-110.572 44.7935,-114.895 38.3905,-112.833 47.3056,-119.218 47.3056,-119.218"/>
</g>
<!-- Customer -->
<g id="node3" class="node"><title>Customer</title>
<ellipse fill="none" stroke="black" cx="630.071" cy="-167" rx="58.1882" ry="18.3848"/>
<text text-anchor="middle" x="630.071" y="-163.4" font-family="Times Roman,serif" font-size="14.00">Customer</text>
</g>
<!-- Order -->
<g id="node8" class="node"><title>Order</title>
<ellipse fill="none" stroke="black" cx="488.071" cy="-93" rx="39.0967" ry="18.3848"/>
<text text-anchor="middle" x="488.071" y="-89.4" font-family="Times Roman,serif" font-size="14.00">Order</text>
</g>
<!-- Customer&#45;&gt;Order -->
<g id="edge6" class="edge"><title>Customer&#45;&gt;Order</title>
<path fill="none" stroke="#29dcfa" d="M592.249,-147.29C570.933,-136.182 544.469,-122.391 523.548,-111.488"/>
<ellipse fill="none" stroke="#29dcfa" cx="596.061" cy="-149.277" rx="4.00002" ry="4.00002"/>
<polygon fill="#29dcfa" stroke="#29dcfa" points="523.527,-111.477 516.738,-102.865 519.093,-109.166 514.659,-106.856 514.659,-106.856 514.659,-106.856 519.093,-109.166 512.579,-110.846 523.527,-111.477 523.527,-111.477"/>
</g>
<!-- Account -->
<g id="node4" class="node"><title>Account</title>
<ellipse fill="none" stroke="black" cx="200.071" cy="-93" rx="50.9117" ry="18.3848"/>
<text text-anchor="middle" x="200.071" y="-89.4" font-family="Times Roman,serif" font-size="14.00">Account</text>
</g>
<!-- AccountHistory -->
<g id="node6" class="node"><title>AccountHistory</title>
<ellipse fill="none" stroke="black" cx="279.071" cy="-19" rx="85.7684" ry="18.3848"/>
<text text-anchor="middle" x="279.071" y="-15.4" font-family="Times Roman,serif" font-size="14.00">AccountHistory</text>
</g>
<!-- Account&#45;&gt;AccountHistory -->
<g id="edge10" class="edge"><title>Account&#45;&gt;AccountHistory</title>
<path fill="none" stroke="#bc1a21" d="M224.815,-69.8216C234.032,-61.1879 244.501,-51.3816 253.767,-42.7016"/>
<ellipse fill="none" stroke="#bc1a21" cx="221.712" cy="-72.7285" rx="4.00002" ry="4.00002"/>
<ellipse fill="#bc1a21" stroke="#bc1a21" cx="256.739" cy="-39.9184" rx="4.00002" ry="4.00002"/>
</g>
<!-- Physician -->
<g id="node5" class="node"><title>Physician</title>
<ellipse fill="none" stroke="black" cx="839.071" cy="-167" rx="56.7776" ry="18.3848"/>
<text text-anchor="middle" x="839.071" y="-163.4" font-family="Times Roman,serif" font-size="14.00">Physician</text>
</g>
<!-- Patient -->
<g id="node10" class="node"><title>Patient</title>
<ellipse fill="none" stroke="black" cx="889.071" cy="-93" rx="46.1672" ry="18.3848"/>
<text text-anchor="middle" x="889.071" y="-89.4" font-family="Times Roman,serif" font-size="14.00">Patient</text>
</g>
<!-- Physician&#45;&gt;Patient -->
<g id="edge16" class="edge"><title>Physician&#45;&gt;Patient</title>
<path fill="none" stroke="#6b6656" d="M857.185,-140.191C861.679,-133.539 866.495,-126.411 870.988,-119.762"/>
<polygon fill="#6b6656" stroke="#6b6656" points="857.029,-140.422 847.701,-146.188 854.229,-144.565 851.43,-148.708 851.43,-148.708 851.43,-148.708 854.229,-144.565 855.159,-151.227 857.029,-140.422 857.029,-140.422"/>
<polygon fill="#6b6656" stroke="#6b6656" points="871.255,-119.368 880.582,-113.601 874.054,-115.225 876.853,-111.082 876.853,-111.082 876.853,-111.082 874.054,-115.225 873.124,-108.562 871.255,-119.368 871.255,-119.368"/>
</g>
<!-- Appointment -->
<g id="node11" class="node"><title>Appointment</title>
<ellipse fill="none" stroke="black" cx="815.071" cy="-19" rx="74.9533" ry="18.3848"/>
<text text-anchor="middle" x="815.071" y="-15.4" font-family="Times Roman,serif" font-size="14.00">Appointment</text>
</g>
<!-- Physician&#45;&gt;Appointment -->
<g id="edge14" class="edge"><title>Physician&#45;&gt;Appointment</title>
<path fill="none" stroke="#8f1973" d="M834.693,-140.006C830.444,-113.801 824.018,-74.1765 819.689,-47.4789"/>
<ellipse fill="none" stroke="#8f1973" cx="835.391" cy="-144.307" rx="4.00001" ry="4.00001"/>
<polygon fill="#8f1973" stroke="#8f1973" points="819.686,-47.4632 822.527,-36.8717 818.886,-42.5276 818.085,-37.5921 818.085,-37.5921 818.085,-37.5921 818.886,-42.5276 813.643,-38.3125 819.686,-47.4632 819.686,-47.4632"/>
</g>
<!-- AssembliesAndPart -->
<g id="node7" class="node"><title>AssembliesAndPart</title>
<ellipse fill="none" stroke="black" cx="450.071" cy="-167" rx="103.945" ry="18.3848"/>
<text text-anchor="middle" x="450.071" y="-163.4" font-family="Times Roman,serif" font-size="14.00">AssembliesAndPart</text>
</g>
<!-- Supplier -->
<g id="node9" class="node"><title>Supplier</title>
<ellipse fill="none" stroke="black" cx="239.071" cy="-167" rx="51.1176" ry="18.3848"/>
<text text-anchor="middle" x="239.071" y="-163.4" font-family="Times Roman,serif" font-size="14.00">Supplier</text>
</g>
<!-- Supplier&#45;&gt;Account -->
<g id="edge26" class="edge"><title>Supplier&#45;&gt;Account</title>
<path fill="none" stroke="#1b577a" d="M225.593,-141.427C221.68,-134.002 217.408,-125.897 213.498,-118.478"/>
<ellipse fill="none" stroke="#1b577a" cx="227.565" cy="-145.169" rx="4.00002" ry="4.00002"/>
<ellipse fill="#1b577a" stroke="#1b577a" cx="211.6" cy="-114.877" rx="4.00002" ry="4.00002"/>
</g>
<!-- Supplier&#45;&gt;AccountHistory -->
<g id="edge28" class="edge"><title>Supplier&#45;&gt;AccountHistory</title>
<path fill="none" stroke="#5d9b68" d="M249.972,-141.063C253.522,-131.98 257.266,-121.64 260.071,-112 266.458,-90.0453 271.503,-64.5699 274.784,-45.8395"/>
<ellipse fill="none" stroke="#5d9b68" cx="248.416" cy="-144.958" rx="4.00001" ry="4.00001"/>
<ellipse fill="#5d9b68" stroke="#5d9b68" cx="275.493" cy="-41.688" rx="4.00001" ry="4.00001"/>
</g>
<!-- Patient&#45;&gt;Appointment -->
<g id="edge32" class="edge"><title>Patient&#45;&gt;Appointment</title>
<path fill="none" stroke="#e6e189" d="M865.599,-69.5288C857.592,-61.5211 848.603,-52.5329 840.452,-44.382"/>
<ellipse fill="none" stroke="#e6e189" cx="868.705" cy="-72.6346" rx="4.00002" ry="4.00002"/>
<polygon fill="#e6e189" stroke="#e6e189" points="840.325,-44.255 836.436,-34.0019 836.79,-40.7194 833.254,-37.1839 833.254,-37.1839 833.254,-37.1839 836.79,-40.7194 830.072,-40.3659 840.325,-44.255 840.325,-44.255"/>
</g>
<!-- ActiveRecord::Base -->
<g id="node14" class="node"><title>ActiveRecord::Base</title>
<ellipse fill="none" stroke="black" cx="450.071" cy="-269" rx="104.151" ry="18.3848"/>
<text text-anchor="middle" x="450.071" y="-265.4" font-family="Times Roman,serif" font-size="14.00">ActiveRecord::Base</text>
</g>
<!-- ActiveRecord::Base&#45;&gt;Assembly -->
<g id="edge4" class="edge"><title>ActiveRecord::Base&#45;&gt;Assembly</title>
<path fill="none" stroke="black" d="M413.623,-251.567C391.821,-241.717 363.333,-229.844 337.071,-222 254.3,-197.279 230.298,-205.179 146.071,-186 137.113,-183.96 127.577,-181.565 118.498,-179.175"/>
</g>
<!-- ActiveRecord::Base&#45;&gt;Customer -->
<g id="edge8" class="edge"><title>ActiveRecord::Base&#45;&gt;Customer</title>
<path fill="none" stroke="black" d="M481.424,-251.233C515.268,-232.055 568.708,-201.772 601.45,-183.219"/>
</g>
<!-- ActiveRecord::Base&#45;&gt;Account -->
<g id="edge12" class="edge"><title>ActiveRecord::Base&#45;&gt;Account</title>
<path fill="none" stroke="black" d="M413.001,-251.705C391.228,-242.023 362.978,-230.273 337.071,-222 268.462,-200.091 223.986,-242.301 179.071,-186 161.832,-164.392 176.021,-131.399 187.97,-111.071"/>
</g>
<!-- ActiveRecord::Base&#45;&gt;Physician -->
<g id="edge18" class="edge"><title>ActiveRecord::Base&#45;&gt;Physician</title>
<path fill="none" stroke="black" d="M509.001,-253.735C572.859,-237.166 677.74,-209.875 768.071,-186 776.829,-183.685 786.191,-181.193 795.148,-178.799"/>
</g>
<!-- ActiveRecord::Base&#45;&gt;AccountHistory -->
<g id="edge20" class="edge"><title>ActiveRecord::Base&#45;&gt;AccountHistory</title>
<path fill="none" stroke="black" d="M538.026,-259.085C625.036,-245.33 739.522,-214.233 697.071,-148 659.213,-88.9352 458.294,-47.9361 349.387,-29.6897"/>
</g>
<!-- ActiveRecord::Base&#45;&gt;AssembliesAndPart -->
<g id="edge22" class="edge"><title>ActiveRecord::Base&#45;&gt;AssembliesAndPart</title>
<path fill="none" stroke="black" d="M450.071,-250.292C450.071,-231.888 450.071,-203.953 450.071,-185.59"/>
</g>
<!-- ActiveRecord::Base&#45;&gt;Order -->
<g id="edge24" class="edge"><title>ActiveRecord::Base&#45;&gt;Order</title>
<path fill="none" stroke="black" d="M412.398,-251.548C369.475,-229.2 308.719,-188.501 337.071,-148 350.631,-128.629 412.431,-110.798 452.646,-100.96"/>
</g>
<!-- ActiveRecord::Base&#45;&gt;Supplier -->
<g id="edge30" class="edge"><title>ActiveRecord::Base&#45;&gt;Supplier</title>
<path fill="none" stroke="black" d="M413.798,-251.466C373.148,-231.815 307.946,-200.295 269.737,-181.824"/>
</g>
<!-- ActiveRecord::Base&#45;&gt;Patient -->
<g id="edge34" class="edge"><title>ActiveRecord::Base&#45;&gt;Patient</title>
<path fill="none" stroke="black" d="M551.911,-265.108C672.03,-258.128 861,-238.837 905.071,-186 922.595,-164.989 910.447,-131.815 899.882,-111.287"/>
</g>
<!-- ActiveRecord::Base&#45;&gt;Appointment -->
<g id="edge36" class="edge"><title>ActiveRecord::Base&#45;&gt;Appointment</title>
<path fill="none" stroke="black" d="M535.297,-258.312C591.211,-247.7 663.288,-226.806 715.071,-186 766.033,-145.841 796.802,-71.9829 809.001,-37.5639"/>
</g>
<!-- ActiveRecord::Base&#45;&gt;Part -->
<g id="edge38" class="edge"><title>ActiveRecord::Base&#45;&gt;Part</title>
<path fill="none" stroke="black" d="M415.337,-251.518C393.427,-241.264 364.233,-228.986 337.071,-222 266.055,-203.735 58.0101,-240.605 9.07051,-186 -9.8007,-164.944 6.53393,-130.842 19.6385,-110.306"/>
</g>
</g>
</svg>
