<?xml version="1.0" encoding="UTF-8" standalone="no"?>
<!DOCTYPE svg PUBLIC "-//W3C//DTD SVG 1.1//EN"
 "http://www.w3.org/Graphics/SVG/1.1/DTD/svg11.dtd">
<!-- Generated by graphviz version 2.26.3 (20100126.1600)
 -->
<!-- Title: models_diagram Pages: 1 -->
<svg width="1181pt" height="606pt"
 viewBox="0.00 0.00 1181.00 606.00" xmlns="http://www.w3.org/2000/svg" xmlns:xlink="http://www.w3.org/1999/xlink">
<g id="graph1" class="graph" transform="scale(1 1) rotate(0) translate(4 602)">
<title>models_diagram</title>
<polygon fill="white" stroke="white" points="-4,5 -4,-602 1178,-602 1178,5 -4,5"/>
<!-- _diagram_info -->
<g id="node1" class="node"><title>_diagram_info</title>
<text text-anchor="start" x="213" y="-581.8" font-family="Times Roman,serif" font-size="13.00">Models diagram</text>
<text text-anchor="start" x="213" y="-564.8" font-family="Times Roman,serif" font-size="13.00">Date: Feb 17 2014 &#45; 12:15</text>
<text text-anchor="start" x="213" y="-547.8" font-family="Times Roman,serif" font-size="13.00">Migration version: 20140210140154</text>
<text text-anchor="start" x="213" y="-530.8" font-family="Times Roman,serif" font-size="13.00">Generated by RailRoady 1.1.1</text>
<text text-anchor="start" x="213" y="-513.8" font-family="Times Roman,serif" font-size="13.00">http://railroady.prestonlee.com</text>
</g>
<!-- Assembly -->
<g id="node2" class="node"><title>Assembly</title>
<polyline fill="none" stroke="black" points="66.5,-352 207.5,-352 "/>
<path fill="none" stroke="black" d="M207.5,-352C213.5,-352 219.5,-358 219.5,-364"/>
<polyline fill="none" stroke="black" points="219.5,-364 219.5,-446 "/>
<path fill="none" stroke="black" d="M219.5,-446C219.5,-452 213.5,-458 207.5,-458"/>
<polyline fill="none" stroke="black" points="207.5,-458 66.5,-458 "/>
<path fill="none" stroke="black" d="M66.5,-458C60.5,-458 54.5,-452 54.5,-446"/>
<polyline fill="none" stroke="black" points="54.5,-446 54.5,-364 "/>
<path fill="none" stroke="black" d="M54.5,-364C54.5,-358 60.5,-352 66.5,-352"/>
<text text-anchor="middle" x="137" y="-441.4" font-family="Times Roman,serif" font-size="14.00">Assembly</text>
<polyline fill="none" stroke="black" points="54.5,-432 219.5,-432 "/>
<text text-anchor="start" x="62.5" y="-415.4" font-family="Times Roman,serif" font-size="14.00">id :integer</text>
<text text-anchor="start" x="62.5" y="-397.4" font-family="Times Roman,serif" font-size="14.00">name :string</text>
<text text-anchor="start" x="62.5" y="-379.4" font-family="Times Roman,serif" font-size="14.00">created_at :datetime</text>
<text text-anchor="start" x="62.5" y="-361.4" font-family="Times Roman,serif" font-size="14.00">updated_at :datetime</text>
</g>
<!-- Part -->
<g id="node12" class="node"><title>Part</title>
<polyline fill="none" stroke="black" points="11.5,-190 152.5,-190 "/>
<path fill="none" stroke="black" d="M152.5,-190C158.5,-190 164.5,-196 164.5,-202"/>
<polyline fill="none" stroke="black" points="164.5,-202 164.5,-284 "/>
<path fill="none" stroke="black" d="M164.5,-284C164.5,-290 158.5,-296 152.5,-296"/>
<polyline fill="none" stroke="black" points="152.5,-296 11.5,-296 "/>
<path fill="none" stroke="black" d="M11.5,-296C5.5,-296 -0.5,-290 -0.5,-284"/>
<polyline fill="none" stroke="black" points="-0.5,-284 -0.5,-202 "/>
<path fill="none" stroke="black" d="M-0.5,-202C-0.5,-196 5.5,-190 11.5,-190"/>
<text text-anchor="middle" x="82" y="-279.4" font-family="Times Roman,serif" font-size="14.00">Part</text>
<polyline fill="none" stroke="black" points="-0.5,-270 164.5,-270 "/>
<text text-anchor="start" x="7.5" y="-253.4" font-family="Times Roman,serif" font-size="14.00">id :integer</text>
<text text-anchor="start" x="7.5" y="-235.4" font-family="Times Roman,serif" font-size="14.00">part_number :string</text>
<text text-anchor="start" x="7.5" y="-217.4" font-family="Times Roman,serif" font-size="14.00">created_at :datetime</text>
<text text-anchor="start" x="7.5" y="-199.4" font-family="Times Roman,serif" font-size="14.00">updated_at :datetime</text>
</g>
<!-- Assembly&#45;&gt;Part -->
<g id="edge2" class="edge"><title>Assembly&#45;&gt;Part</title>
<path fill="none" stroke="#178558" d="M115.655,-342.128C111.626,-330.263 107.412,-317.85 103.383,-305.982"/>
<polygon fill="#178558" stroke="#178558" points="115.776,-342.486 114.73,-353.402 117.383,-347.221 118.991,-351.955 118.991,-351.955 118.991,-351.955 117.383,-347.221 123.252,-350.508 115.776,-342.486 115.776,-342.486"/>
<polygon fill="#178558" stroke="#178558" points="103.264,-305.633 104.311,-294.717 101.657,-300.899 100.05,-296.164 100.05,-296.164 100.05,-296.164 101.657,-300.899 95.7884,-297.611 103.264,-305.633 103.264,-305.633"/>
</g>
<!-- Customer -->
<g id="node3" class="node"><title>Customer</title>
<polyline fill="none" stroke="black" points="688.5,-352 829.5,-352 "/>
<path fill="none" stroke="black" d="M829.5,-352C835.5,-352 841.5,-358 841.5,-364"/>
<polyline fill="none" stroke="black" points="841.5,-364 841.5,-446 "/>
<path fill="none" stroke="black" d="M841.5,-446C841.5,-452 835.5,-458 829.5,-458"/>
<polyline fill="none" stroke="black" points="829.5,-458 688.5,-458 "/>
<path fill="none" stroke="black" d="M688.5,-458C682.5,-458 676.5,-452 676.5,-446"/>
<polyline fill="none" stroke="black" points="676.5,-446 676.5,-364 "/>
<path fill="none" stroke="black" d="M676.5,-364C676.5,-358 682.5,-352 688.5,-352"/>
<text text-anchor="middle" x="759" y="-441.4" font-family="Times Roman,serif" font-size="14.00">Customer</text>
<polyline fill="none" stroke="black" points="676.5,-432 841.5,-432 "/>
<text text-anchor="start" x="684.5" y="-415.4" font-family="Times Roman,serif" font-size="14.00">id :integer</text>
<text text-anchor="start" x="684.5" y="-397.4" font-family="Times Roman,serif" font-size="14.00">name :string</text>
<text text-anchor="start" x="684.5" y="-379.4" font-family="Times Roman,serif" font-size="14.00">created_at :datetime</text>
<text text-anchor="start" x="684.5" y="-361.4" font-family="Times Roman,serif" font-size="14.00">updated_at :datetime</text>
</g>
<!-- Order -->
<g id="node8" class="node"><title>Order</title>
<polyline fill="none" stroke="black" points="580.5,-181 721.5,-181 "/>
<path fill="none" stroke="black" d="M721.5,-181C727.5,-181 733.5,-187 733.5,-193"/>
<polyline fill="none" stroke="black" points="733.5,-193 733.5,-293 "/>
<path fill="none" stroke="black" d="M733.5,-293C733.5,-299 727.5,-305 721.5,-305"/>
<polyline fill="none" stroke="black" points="721.5,-305 580.5,-305 "/>
<path fill="none" stroke="black" d="M580.5,-305C574.5,-305 568.5,-299 568.5,-293"/>
<polyline fill="none" stroke="black" points="568.5,-293 568.5,-193 "/>
<path fill="none" stroke="black" d="M568.5,-193C568.5,-187 574.5,-181 580.5,-181"/>
<text text-anchor="middle" x="651" y="-288.4" font-family="Times Roman,serif" font-size="14.00">Order</text>
<polyline fill="none" stroke="black" points="568.5,-279 733.5,-279 "/>
<text text-anchor="start" x="576.5" y="-262.4" font-family="Times Roman,serif" font-size="14.00">id :integer</text>
<text text-anchor="start" x="576.5" y="-244.4" font-family="Times Roman,serif" font-size="14.00">customer_id :integer</text>
<text text-anchor="start" x="576.5" y="-226.4" font-family="Times Roman,serif" font-size="14.00">order_date :datetime</text>
<text text-anchor="start" x="576.5" y="-208.4" font-family="Times Roman,serif" font-size="14.00">created_at :datetime</text>
<text text-anchor="start" x="576.5" y="-190.4" font-family="Times Roman,serif" font-size="14.00">updated_at :datetime</text>
</g>
<!-- Customer&#45;&gt;Order -->
<g id="edge6" class="edge"><title>Customer&#45;&gt;Order</title>
<path fill="none" stroke="#689d56" d="M719.14,-345.21C712.275,-334.913 705.082,-324.123 698.048,-313.573"/>
<ellipse fill="none" stroke="#689d56" cx="721.418" cy="-348.627" rx="4.00002" ry="4.00002"/>
<polygon fill="#689d56" stroke="#689d56" points="697.999,-313.498 696.196,-302.681 695.225,-309.338 692.452,-305.177 692.452,-305.177 692.452,-305.177 695.225,-309.338 688.707,-307.674 697.999,-313.498 697.999,-313.498"/>
</g>
<!-- Account -->
<g id="node4" class="node"><title>Account</title>
<polyline fill="none" stroke="black" points="237,-181 393,-181 "/>
<path fill="none" stroke="black" d="M393,-181C399,-181 405,-187 405,-193"/>
<polyline fill="none" stroke="black" points="405,-193 405,-293 "/>
<path fill="none" stroke="black" d="M405,-293C405,-299 399,-305 393,-305"/>
<polyline fill="none" stroke="black" points="393,-305 237,-305 "/>
<path fill="none" stroke="black" d="M237,-305C231,-305 225,-299 225,-293"/>
<polyline fill="none" stroke="black" points="225,-293 225,-193 "/>
<path fill="none" stroke="black" d="M225,-193C225,-187 231,-181 237,-181"/>
<text text-anchor="middle" x="315" y="-288.4" font-family="Times Roman,serif" font-size="14.00">Account</text>
<polyline fill="none" stroke="black" points="225,-279 405,-279 "/>
<text text-anchor="start" x="233" y="-262.4" font-family="Times Roman,serif" font-size="14.00">id :integer</text>
<text text-anchor="start" x="233" y="-244.4" font-family="Times Roman,serif" font-size="14.00">supplier_id :integer</text>
<text text-anchor="start" x="233" y="-226.4" font-family="Times Roman,serif" font-size="14.00">account_number :string</text>
<text text-anchor="start" x="233" y="-208.4" font-family="Times Roman,serif" font-size="14.00">created_at :datetime</text>
<text text-anchor="start" x="233" y="-190.4" font-family="Times Roman,serif" font-size="14.00">updated_at :datetime</text>
</g>
<!-- AccountHistory -->
<g id="node6" class="node"><title>AccountHistory</title>
<polyline fill="none" stroke="black" points="362.5,-10 503.5,-10 "/>
<path fill="none" stroke="black" d="M503.5,-10C509.5,-10 515.5,-16 515.5,-22"/>
<polyline fill="none" stroke="black" points="515.5,-22 515.5,-122 "/>
<path fill="none" stroke="black" d="M515.5,-122C515.5,-128 509.5,-134 503.5,-134"/>
<polyline fill="none" stroke="black" points="503.5,-134 362.5,-134 "/>
<path fill="none" stroke="black" d="M362.5,-134C356.5,-134 350.5,-128 350.5,-122"/>
<polyline fill="none" stroke="black" points="350.5,-122 350.5,-22 "/>
<path fill="none" stroke="black" d="M350.5,-22C350.5,-16 356.5,-10 362.5,-10"/>
<text text-anchor="middle" x="433" y="-117.4" font-family="Times Roman,serif" font-size="14.00">AccountHistory</text>
<polyline fill="none" stroke="black" points="350.5,-108 515.5,-108 "/>
<text text-anchor="start" x="358.5" y="-91.4" font-family="Times Roman,serif" font-size="14.00">id :integer</text>
<text text-anchor="start" x="358.5" y="-73.4" font-family="Times Roman,serif" font-size="14.00">account_id :integer</text>
<text text-anchor="start" x="358.5" y="-55.4" font-family="Times Roman,serif" font-size="14.00">credit_rating :integer</text>
<text text-anchor="start" x="358.5" y="-37.4" font-family="Times Roman,serif" font-size="14.00">created_at :datetime</text>
<text text-anchor="start" x="358.5" y="-19.4" font-family="Times Roman,serif" font-size="14.00">updated_at :datetime</text>
</g>
<!-- Account&#45;&gt;AccountHistory -->
<g id="edge10" class="edge"><title>Account&#45;&gt;AccountHistory</title>
<path fill="none" stroke="#adeb1c" d="M362.644,-173.957C370.163,-163.06 377.938,-151.793 385.455,-140.9"/>
<ellipse fill="none" stroke="#adeb1c" cx="360.206" cy="-177.489" rx="4.00002" ry="4.00002"/>
<ellipse fill="#adeb1c" stroke="#adeb1c" cx="387.826" cy="-137.465" rx="4.00002" ry="4.00002"/>
</g>
<!-- Physician -->
<g id="node5" class="node"><title>Physician</title>
<polyline fill="none" stroke="black" points="946.5,-352 1087.5,-352 "/>
<path fill="none" stroke="black" d="M1087.5,-352C1093.5,-352 1099.5,-358 1099.5,-364"/>
<polyline fill="none" stroke="black" points="1099.5,-364 1099.5,-446 "/>
<path fill="none" stroke="black" d="M1099.5,-446C1099.5,-452 1093.5,-458 1087.5,-458"/>
<polyline fill="none" stroke="black" points="1087.5,-458 946.5,-458 "/>
<path fill="none" stroke="black" d="M946.5,-458C940.5,-458 934.5,-452 934.5,-446"/>
<polyline fill="none" stroke="black" points="934.5,-446 934.5,-364 "/>
<path fill="none" stroke="black" d="M934.5,-364C934.5,-358 940.5,-352 946.5,-352"/>
<text text-anchor="middle" x="1017" y="-441.4" font-family="Times Roman,serif" font-size="14.00">Physician</text>
<polyline fill="none" stroke="black" points="934.5,-432 1099.5,-432 "/>
<text text-anchor="start" x="942.5" y="-415.4" font-family="Times Roman,serif" font-size="14.00">id :integer</text>
<text text-anchor="start" x="942.5" y="-397.4" font-family="Times Roman,serif" font-size="14.00">name :string</text>
<text text-anchor="start" x="942.5" y="-379.4" font-family="Times Roman,serif" font-size="14.00">created_at :datetime</text>
<text text-anchor="start" x="942.5" y="-361.4" font-family="Times Roman,serif" font-size="14.00">updated_at :datetime</text>
</g>
<!-- Patient -->
<g id="node10" class="node"><title>Patient</title>
<polyline fill="none" stroke="black" points="1020.5,-190 1161.5,-190 "/>
<path fill="none" stroke="black" d="M1161.5,-190C1167.5,-190 1173.5,-196 1173.5,-202"/>
<polyline fill="none" stroke="black" points="1173.5,-202 1173.5,-284 "/>
<path fill="none" stroke="black" d="M1173.5,-284C1173.5,-290 1167.5,-296 1161.5,-296"/>
<polyline fill="none" stroke="black" points="1161.5,-296 1020.5,-296 "/>
<path fill="none" stroke="black" d="M1020.5,-296C1014.5,-296 1008.5,-290 1008.5,-284"/>
<polyline fill="none" stroke="black" points="1008.5,-284 1008.5,-202 "/>
<path fill="none" stroke="black" d="M1008.5,-202C1008.5,-196 1014.5,-190 1020.5,-190"/>
<text text-anchor="middle" x="1091" y="-279.4" font-family="Times Roman,serif" font-size="14.00">Patient</text>
<polyline fill="none" stroke="black" points="1008.5,-270 1173.5,-270 "/>
<text text-anchor="start" x="1016.5" y="-253.4" font-family="Times Roman,serif" font-size="14.00">id :integer</text>
<text text-anchor="start" x="1016.5" y="-235.4" font-family="Times Roman,serif" font-size="14.00">name :string</text>
<text text-anchor="start" x="1016.5" y="-217.4" font-family="Times Roman,serif" font-size="14.00">created_at :datetime</text>
<text text-anchor="start" x="1016.5" y="-199.4" font-family="Times Roman,serif" font-size="14.00">updated_at :datetime</text>
</g>
<!-- Physician&#45;&gt;Patient -->
<g id="edge16" class="edge"><title>Physician&#45;&gt;Patient</title>
<path fill="none" stroke="#875415" d="M1045.52,-342.562C1051.1,-330.358 1056.94,-317.56 1062.52,-305.358"/>
<polygon fill="#875415" stroke="#875415" points="1045.39,-342.859 1037.14,-350.085 1043.31,-347.407 1041.23,-351.955 1041.23,-351.955 1041.23,-351.955 1043.31,-347.407 1045.32,-353.825 1045.39,-342.859 1045.39,-342.859"/>
<polygon fill="#875415" stroke="#875415" points="1062.56,-305.26 1070.81,-298.034 1064.64,-300.712 1066.72,-296.164 1066.72,-296.164 1066.72,-296.164 1064.64,-300.712 1062.62,-294.294 1062.56,-305.26 1062.56,-305.26"/>
</g>
<!-- Appointment -->
<g id="node11" class="node"><title>Appointment</title>
<polyline fill="none" stroke="black" points="886.5,-1 1075.5,-1 "/>
<path fill="none" stroke="black" d="M1075.5,-1C1081.5,-1 1087.5,-7 1087.5,-13"/>
<polyline fill="none" stroke="black" points="1087.5,-13 1087.5,-131 "/>
<path fill="none" stroke="black" d="M1087.5,-131C1087.5,-137 1081.5,-143 1075.5,-143"/>
<polyline fill="none" stroke="black" points="1075.5,-143 886.5,-143 "/>
<path fill="none" stroke="black" d="M886.5,-143C880.5,-143 874.5,-137 874.5,-131"/>
<polyline fill="none" stroke="black" points="874.5,-131 874.5,-13 "/>
<path fill="none" stroke="black" d="M874.5,-13C874.5,-7 880.5,-1 886.5,-1"/>
<text text-anchor="middle" x="981" y="-126.4" font-family="Times Roman,serif" font-size="14.00">Appointment</text>
<polyline fill="none" stroke="black" points="874.5,-117 1087.5,-117 "/>
<text text-anchor="start" x="882.5" y="-100.4" font-family="Times Roman,serif" font-size="14.00">id :integer</text>
<text text-anchor="start" x="882.5" y="-82.4" font-family="Times Roman,serif" font-size="14.00">physician_id :integer</text>
<text text-anchor="start" x="882.5" y="-64.4" font-family="Times Roman,serif" font-size="14.00">patient_id :integer</text>
<text text-anchor="start" x="882.5" y="-46.4" font-family="Times Roman,serif" font-size="14.00">appointment_date :datetime</text>
<text text-anchor="start" x="882.5" y="-28.4" font-family="Times Roman,serif" font-size="14.00">created_at :datetime</text>
<text text-anchor="start" x="882.5" y="-10.4" font-family="Times Roman,serif" font-size="14.00">updated_at :datetime</text>
</g>
<!-- Physician&#45;&gt;Appointment -->
<g id="edge14" class="edge"><title>Physician&#45;&gt;Appointment</title>
<path fill="none" stroke="#5c34fb" d="M1005.62,-343.844C1003.55,-331.354 1001.55,-318.277 1000,-306 993.607,-255.341 988.921,-198.227 985.802,-153.106"/>
<ellipse fill="none" stroke="#5c34fb" cx="1006.33" cy="-348.009" rx="4.00001" ry="4.00001"/>
<polygon fill="#5c34fb" stroke="#5c34fb" points="985.799,-153.06 989.611,-142.778 985.46,-148.071 985.121,-143.083 985.121,-143.083 985.121,-143.083 985.46,-148.071 980.632,-143.388 985.799,-153.06 985.799,-153.06"/>
</g>
<!-- AssembliesAndPart -->
<g id="node7" class="node"><title>AssembliesAndPart</title>
<polyline fill="none" stroke="black" points="506.5,-343 647.5,-343 "/>
<path fill="none" stroke="black" d="M647.5,-343C653.5,-343 659.5,-349 659.5,-355"/>
<polyline fill="none" stroke="black" points="659.5,-355 659.5,-455 "/>
<path fill="none" stroke="black" d="M659.5,-455C659.5,-461 653.5,-467 647.5,-467"/>
<polyline fill="none" stroke="black" points="647.5,-467 506.5,-467 "/>
<path fill="none" stroke="black" d="M506.5,-467C500.5,-467 494.5,-461 494.5,-455"/>
<polyline fill="none" stroke="black" points="494.5,-455 494.5,-355 "/>
<path fill="none" stroke="black" d="M494.5,-355C494.5,-349 500.5,-343 506.5,-343"/>
<text text-anchor="middle" x="577" y="-450.4" font-family="Times Roman,serif" font-size="14.00">AssembliesAndPart</text>
<polyline fill="none" stroke="black" points="494.5,-441 659.5,-441 "/>
<text text-anchor="start" x="502.5" y="-424.4" font-family="Times Roman,serif" font-size="14.00">id :integer</text>
<text text-anchor="start" x="502.5" y="-406.4" font-family="Times Roman,serif" font-size="14.00">assembly_id :integer</text>
<text text-anchor="start" x="502.5" y="-388.4" font-family="Times Roman,serif" font-size="14.00">part_id :integer</text>
<text text-anchor="start" x="502.5" y="-370.4" font-family="Times Roman,serif" font-size="14.00">created_at :datetime</text>
<text text-anchor="start" x="502.5" y="-352.4" font-family="Times Roman,serif" font-size="14.00">updated_at :datetime</text>
</g>
<!-- Supplier -->
<g id="node9" class="node"><title>Supplier</title>
<polyline fill="none" stroke="black" points="286.5,-352 427.5,-352 "/>
<path fill="none" stroke="black" d="M427.5,-352C433.5,-352 439.5,-358 439.5,-364"/>
<polyline fill="none" stroke="black" points="439.5,-364 439.5,-446 "/>
<path fill="none" stroke="black" d="M439.5,-446C439.5,-452 433.5,-458 427.5,-458"/>
<polyline fill="none" stroke="black" points="427.5,-458 286.5,-458 "/>
<path fill="none" stroke="black" d="M286.5,-458C280.5,-458 274.5,-452 274.5,-446"/>
<polyline fill="none" stroke="black" points="274.5,-446 274.5,-364 "/>
<path fill="none" stroke="black" d="M274.5,-364C274.5,-358 280.5,-352 286.5,-352"/>
<text text-anchor="middle" x="357" y="-441.4" font-family="Times Roman,serif" font-size="14.00">Supplier</text>
<polyline fill="none" stroke="black" points="274.5,-432 439.5,-432 "/>
<text text-anchor="start" x="282.5" y="-415.4" font-family="Times Roman,serif" font-size="14.00">id :integer</text>
<text text-anchor="start" x="282.5" y="-397.4" font-family="Times Roman,serif" font-size="14.00">name :string</text>
<text text-anchor="start" x="282.5" y="-379.4" font-family="Times Roman,serif" font-size="14.00">created_at :datetime</text>
<text text-anchor="start" x="282.5" y="-361.4" font-family="Times Roman,serif" font-size="14.00">updated_at :datetime</text>
</g>
<!-- Supplier&#45;&gt;Account -->
<g id="edge26" class="edge"><title>Supplier&#45;&gt;Account</title>
<path fill="none" stroke="#12b9fc" d="M341.219,-344.131C338.589,-333.985 335.841,-323.388 333.157,-313.035"/>
<ellipse fill="none" stroke="#12b9fc" cx="342.244" cy="-348.083" rx="4.00001" ry="4.00001"/>
<ellipse fill="#12b9fc" stroke="#12b9fc" cx="332.124" cy="-309.049" rx="4.00001" ry="4.00001"/>
</g>
<!-- Supplier&#45;&gt;AccountHistory -->
<g id="edge28" class="edge"><title>Supplier&#45;&gt;AccountHistory</title>
<path fill="none" stroke="#d97148" d="M397.31,-344.597C403.924,-332.268 409.936,-319.06 414,-306 430.601,-252.656 434.872,-189.351 435.257,-142.045"/>
<ellipse fill="none" stroke="#d97148" cx="395.292" cy="-348.246" rx="4.00002" ry="4.00002"/>
<ellipse fill="#d97148" stroke="#d97148" cx="435.272" cy="-138.001" rx="4" ry="4"/>
</g>
<!-- Patient&#45;&gt;Appointment -->
<g id="edge32" class="edge"><title>Patient&#45;&gt;Appointment</title>
<path fill="none" stroke="#97c9c7" d="M1052.27,-182.79C1045.81,-172.754 1039.03,-162.207 1032.32,-151.774"/>
<ellipse fill="none" stroke="#97c9c7" cx="1054.63" cy="-186.468" rx="4.00002" ry="4.00002"/>
<polygon fill="#97c9c7" stroke="#97c9c7" points="1032.12,-151.461 1030.49,-140.617 1029.41,-147.256 1026.71,-143.051 1026.71,-143.051 1026.71,-143.051 1029.41,-147.256 1022.92,-145.486 1032.12,-151.461 1032.12,-151.461"/>
</g>
<!-- ActiveRecord::Base -->
<g id="node14" class="node"><title>ActiveRecord::Base</title>
<ellipse fill="none" stroke="black" cx="577" cy="-551" rx="104.151" ry="18.3848"/>
<text text-anchor="middle" x="577" y="-547.4" font-family="Times Roman,serif" font-size="14.00">ActiveRecord::Base</text>
</g>
<!-- ActiveRecord::Base&#45;&gt;Assembly -->
<g id="edge4" class="edge"><title>ActiveRecord::Base&#45;&gt;Assembly</title>
<path fill="none" stroke="black" d="M541.399,-533.605C519.534,-523.58 490.691,-511.513 464,-504 363.981,-475.847 329.961,-505.349 233,-468 225.745,-465.205 218.472,-461.8 211.356,-458.035"/>
</g>
<!-- ActiveRecord::Base&#45;&gt;Customer -->
<g id="edge8" class="edge"><title>ActiveRecord::Base&#45;&gt;Customer</title>
<path fill="none" stroke="black" d="M599.682,-532.804C622.933,-514.153 660.206,-484.252 692.855,-458.061"/>
</g>
<!-- ActiveRecord::Base&#45;&gt;Account -->
<g id="edge12" class="edge"><title>ActiveRecord::Base&#45;&gt;Account</title>
<path fill="none" stroke="black" d="M540.824,-533.619C518.997,-523.725 490.39,-511.789 464,-504 378.216,-478.68 323.31,-536.67 266,-468 228.089,-422.574 250.389,-354.47 275.953,-305.093"/>
</g>
<!-- ActiveRecord::Base&#45;&gt;Physician -->
<g id="edge18" class="edge"><title>ActiveRecord::Base&#45;&gt;Physician</title>
<path fill="none" stroke="black" d="M658.414,-539.471C729.758,-527.491 835.17,-505.178 921,-468 927.677,-465.108 934.401,-461.76 941.024,-458.145"/>
</g>
<!-- ActiveRecord::Base&#45;&gt;AccountHistory -->
<g id="edge20" class="edge"><title>ActiveRecord::Base&#45;&gt;AccountHistory</title>
<path fill="none" stroke="black" d="M652.747,-538.3C725.031,-524.454 826.328,-499.938 850,-468 883.345,-423.01 866.228,-395.597 850,-342 824.924,-259.18 810.386,-233.022 742,-180 675.42,-128.378 582.327,-100.326 515.757,-85.8573"/>
</g>
<!-- ActiveRecord::Base&#45;&gt;AssembliesAndPart -->
<g id="edge22" class="edge"><title>ActiveRecord::Base&#45;&gt;AssembliesAndPart</title>
<path fill="none" stroke="black" d="M577,-532.212C577,-515.653 577,-490.57 577,-467.04"/>
</g>
<!-- ActiveRecord::Base&#45;&gt;Order -->
<g id="edge24" class="edge"><title>ActiveRecord::Base&#45;&gt;Order</title>
<path fill="none" stroke="black" d="M546.679,-533.113C525.295,-518.594 498.347,-495.974 486,-468 463.387,-416.769 458.409,-390.731 486,-342 504.023,-310.168 536.816,-287.455 568.446,-271.883"/>
</g>
<!-- ActiveRecord::Base&#45;&gt;Supplier -->
<g id="edge30" class="edge"><title>ActiveRecord::Base&#45;&gt;Supplier</title>
<path fill="none" stroke="black" d="M550.024,-533.098C522.027,-514.518 476.877,-484.555 437.281,-458.277"/>
</g>
<!-- ActiveRecord::Base&#45;&gt;Patient -->
<g id="edge34" class="edge"><title>ActiveRecord::Base&#45;&gt;Patient</title>
<path fill="none" stroke="black" d="M670.696,-542.927C815.488,-529.493 1079.96,-500.764 1108,-468 1148.12,-421.124 1132.44,-346.762 1114.43,-296.478"/>
</g>
<!-- ActiveRecord::Base&#45;&gt;Appointment -->
<g id="edge36" class="edge"><title>ActiveRecord::Base&#45;&gt;Appointment</title>
<path fill="none" stroke="black" d="M653.322,-538.383C730.389,-524.153 842.306,-498.914 873,-468 896.065,-444.77 941.66,-250.869 965.56,-143.271"/>
</g>
<!-- ActiveRecord::Base&#45;&gt;Part -->
<g id="edge38" class="edge"><title>ActiveRecord::Base&#45;&gt;Part</title>
<path fill="none" stroke="black" d="M542.322,-533.294C520.434,-522.955 491.242,-510.668 464,-504 418.72,-492.917 77.5168,-502.348 46,-468 3.74188,-421.946 27.3593,-347.033 51.6341,-296.426"/>
</g>
</g>
</svg>
